<svg version="1.1" id="Layer_1" xmlns="http://www.w3.org/2000/svg" xmlns:xlink="http://www.w3.org/1999/xlink" x="0px" y="0px"
	 width="100%" viewBox="0 0 4316 2088" enable-background="new 0 0 4316 2088" xml:space="preserve">
<path fill="#41AC95" opacity="1.000000" stroke="none" 
	d="
M4094.000000,2090.000000 
	C2729.333740,2090.000000 1365.667480,2090.000000 2.000915,2090.000000 
	C2.000610,1394.000610 2.000610,698.001221 2.000305,2.001381 
	C1440.665649,2.000921 2879.331299,2.000921 4317.998047,2.000461 
	C4317.998535,697.998779 4317.998535,1393.997559 4317.999023,2089.998047 
	C4243.666504,2090.000000 4169.333496,2090.000000 4094.000000,2090.000000 
M1300.777588,891.265564 
	C1312.251709,899.793213 1324.445435,907.515076 1335.063843,917.000610 
	C1366.005249,944.641296 1392.427124,976.324158 1415.790161,1010.586609 
	C1419.350464,1015.807922 1422.966919,1021.068054 1427.179199,1025.750977 
	C1434.617554,1034.020752 1443.180298,1034.973755 1452.024780,1028.459351 
	C1457.079956,1024.736084 1462.413452,1020.756104 1465.932129,1015.712952 
	C1473.329590,1005.110291 1480.066040,993.976868 1486.249512,982.612732 
	C1496.116821,964.477844 1505.024902,945.819946 1514.942993,927.714355 
	C1518.567871,921.097168 1523.509399,915.056335 1528.593994,909.424133 
	C1533.756470,903.705566 1540.852661,902.082275 1547.762817,905.716797 
	C1554.151855,909.077026 1560.645996,912.942322 1565.720947,917.970825 
	C1584.663818,936.739929 1597.678711,959.586060 1608.846802,983.564148 
	C1610.533203,987.184814 1611.836914,991.044800 1613.953369,994.392151 
	C1619.344482,1002.919128 1628.243530,1003.302429 1634.602417,995.441528 
	C1636.051514,993.650208 1637.079956,991.504089 1638.205078,989.467712 
	C1647.064209,973.433411 1655.453491,957.117004 1664.904785,941.440552 
	C1670.886719,931.518311 1669.928711,923.345825 1662.315552,915.285217 
	C1648.602783,900.766663 1635.460083,885.651794 1621.031494,871.884094 
	C1607.986938,859.437195 1592.871216,849.289917 1576.047729,842.519836 
	C1546.416870,830.595886 1521.608521,834.141052 1500.237061,857.134338 
	C1491.470825,866.565857 1484.539795,877.716797 1476.907471,888.182739 
	C1472.992065,893.551941 1469.692993,899.393250 1465.552490,904.571106 
	C1454.795044,918.023621 1443.054810,920.332825 1428.839844,910.722717 
	C1419.806030,904.615356 1411.434448,897.298828 1403.645020,889.631287 
	C1390.119019,876.317139 1377.392578,862.195251 1364.103638,848.634644 
	C1354.713989,839.052979 1343.914917,831.310608 1331.786621,825.442810 
	C1311.561157,815.657776 1292.352173,817.994446 1274.095337,830.325012 
	C1251.001343,845.922546 1237.998291,868.847656 1227.945068,894.012939 
	C1217.042603,921.303772 1218.388916,949.554626 1221.008423,977.833557 
	C1224.338867,1013.789307 1232.819702,1048.745361 1242.962036,1083.317139 
	C1255.094116,1124.671387 1271.201660,1164.430420 1291.090942,1202.656372 
	C1292.776978,1205.896729 1294.514404,1209.195435 1296.772095,1212.034302 
	C1300.613770,1216.864868 1307.011963,1217.748901 1312.000488,1214.620728 
	C1316.807373,1211.606567 1317.717529,1208.210327 1315.201294,1201.674683 
	C1314.127319,1198.884888 1312.717041,1196.222656 1311.422729,1193.520142 
	C1306.244141,1182.707520 1300.837891,1171.998413 1295.900269,1161.077026 
	C1274.255981,1113.203125 1258.786133,1063.316406 1248.740723,1011.814453 
	C1244.151367,988.284790 1241.325073,964.453674 1241.883301,940.329285 
	C1242.204712,926.440369 1245.202759,913.218872 1250.559570,900.541687 
	C1256.843384,885.671204 1269.442139,879.933838 1284.532837,884.816833 
	C1289.587769,886.452515 1294.471069,888.618530 1300.777588,891.265564 
z"/>
<path fill="#F9FDFC" opacity="1.000000" stroke="none" 
	d="
M1300.105225,890.903931 
	C1294.471069,888.618530 1289.587769,886.452515 1284.532837,884.816833 
	C1269.442139,879.933838 1256.843384,885.671204 1250.559570,900.541687 
	C1245.202759,913.218872 1242.204712,926.440369 1241.883301,940.329285 
	C1241.325073,964.453674 1244.151367,988.284790 1248.740723,1011.814453 
	C1258.786133,1063.316406 1274.255981,1113.203125 1295.900269,1161.077026 
	C1300.837891,1171.998413 1306.244141,1182.707520 1311.422729,1193.520142 
	C1312.717041,1196.222656 1314.127319,1198.884888 1315.201294,1201.674683 
	C1317.717529,1208.210327 1316.807373,1211.606567 1312.000488,1214.620728 
	C1307.011963,1217.748901 1300.613770,1216.864868 1296.772095,1212.034302 
	C1294.514404,1209.195435 1292.776978,1205.896729 1291.090942,1202.656372 
	C1271.201660,1164.430420 1255.094116,1124.671387 1242.962036,1083.317139 
	C1232.819702,1048.745361 1224.338867,1013.789307 1221.008423,977.833557 
	C1218.388916,949.554626 1217.042603,921.303772 1227.945068,894.012939 
	C1237.998291,868.847656 1251.001343,845.922546 1274.095337,830.325012 
	C1292.352173,817.994446 1311.561157,815.657776 1331.786621,825.442810 
	C1343.914917,831.310608 1354.713989,839.052979 1364.103638,848.634644 
	C1377.392578,862.195251 1390.119019,876.317139 1403.645020,889.631287 
	C1411.434448,897.298828 1419.806030,904.615356 1428.839844,910.722717 
	C1443.054810,920.332825 1454.795044,918.023621 1465.552490,904.571106 
	C1469.692993,899.393250 1472.992065,893.551941 1476.907471,888.182739 
	C1484.539795,877.716797 1491.470825,866.565857 1500.237061,857.134338 
	C1521.608521,834.141052 1546.416870,830.595886 1576.047729,842.519836 
	C1592.871216,849.289917 1607.986938,859.437195 1621.031494,871.884094 
	C1635.460083,885.651794 1648.602783,900.766663 1662.315552,915.285217 
	C1669.928711,923.345825 1670.886719,931.518311 1664.904785,941.440552 
	C1655.453491,957.117004 1647.064209,973.433411 1638.205078,989.467712 
	C1637.079956,991.504089 1636.051514,993.650208 1634.602417,995.441528 
	C1628.243530,1003.302429 1619.344482,1002.919128 1613.953369,994.392151 
	C1611.836914,991.044800 1610.533203,987.184814 1608.846802,983.564148 
	C1597.678711,959.586060 1584.663818,936.739929 1565.720947,917.970825 
	C1560.645996,912.942322 1554.151855,909.077026 1547.762817,905.716797 
	C1540.852661,902.082275 1533.756470,903.705566 1528.593994,909.424133 
	C1523.509399,915.056335 1518.567871,921.097168 1514.942993,927.714355 
	C1505.024902,945.819946 1496.116821,964.477844 1486.249512,982.612732 
	C1480.066040,993.976868 1473.329590,1005.110291 1465.932129,1015.712952 
	C1462.413452,1020.756104 1457.079956,1024.736084 1452.024780,1028.459351 
	C1443.180298,1034.973755 1434.617554,1034.020752 1427.179199,1025.750977 
	C1422.966919,1021.068054 1419.350464,1015.807922 1415.790161,1010.586609 
	C1392.427124,976.324158 1366.005249,944.641296 1335.063843,917.000610 
	C1324.445435,907.515076 1312.251709,899.793213 1300.105225,890.903931 
z"/>
</svg>