<?xml version="1.0" encoding="UTF-8"?>
<svg xmlns="http://www.w3.org/2000/svg" version="1.1" width="1024" height="1024" style="background-color:transparent;">
  <path d="M0 0 C337.92 0 675.84 0 1024 0 C1024 337.92 1024 675.84 1024 1024 C686.08 1024 348.16 1024 0 1024 C0 686.08 0 348.16 0 0 Z " fill="none" transform="translate(0,0)"/>
  <path d="M0 0 C12.33944476 8.16639629 22.83392946 18.64235341 33.16601562 29.13574219 C44.071447 40.95560167 44.071447 40.95560167 58.49609375 46.0234375 C63.80140412 44.98149366 66.6683159 40.48646706 69.50585938 36.26855469 C69.94994141 35.5934082 70.39402344 34.91826172 70.8515625 34.22265625 C71.82339837 32.78199834 72.79607097 31.34190454 73.76953125 29.90234375 C74.4972876 28.81904785 74.4972876 28.81904785 75.23974609 27.71386719 C95.48494695 -2.36590672 95.48494695 -2.36590672 107.6640625 -5.40234375 C122.03025526 -7.17929422 133.53262782 -3.47163626 145.0390625 5.42578125 C149.37955179 9.01701941 153.56896608 12.72930175 157.6640625 16.59765625 C158.66179687 17.51611328 158.66179687 17.51611328 159.6796875 18.453125 C166.85570975 25.29368279 173.16988197 33.35638545 178.6640625 41.59765625 C178.08360564 52.82421959 169.25269252 62.31657241 162.9140625 71.16015625 C162.35944336 71.93399658 161.80482422 72.70783691 161.23339844 73.50512695 C154.08908595 83.32477942 154.08908595 83.32477942 149.7265625 84.16015625 C145.78514738 83.43622286 144.27445774 81.42349106 141.6640625 78.59765625 C141.07407471 77.96819092 140.48408691 77.33872559 139.8762207 76.69018555 C137.14956468 73.77618901 134.43098686 70.85486645 131.72265625 67.92382812 C124.584978 59.63377349 124.584978 59.63377349 115.2265625 54.78515625 C104.96583294 57.12532264 98.97295139 68.56152269 93.13818359 76.57714844 C71.71716589 105.93792063 71.71716589 105.93792063 58.9140625 108.28515625 C41.92176224 107.28756524 24.38475617 85.41463071 12.9140625 73.84765625 C-3.06088482 56.94468503 -3.06088482 56.94468503 -23.8359375 49.22265625 C-26.97360711 49.31631803 -28.30753846 49.5825101 -31.1484375 51.09765625 C-42.04643219 63.55250733 -40.3275069 82.19501694 -39.3359375 97.59765625 C-38.24037587 107.69521032 -36.37550838 117.65346525 -34.3359375 127.59765625 C-34.15434082 128.49967773 -33.97274414 129.40169922 -33.78564453 130.33105469 C-27.55612401 160.31174424 -16.22580685 191.81063753 -0.4309082 218.06689453 C0.89387264 221.12880719 0.98833047 223.29175978 0.6640625 226.59765625 C-1.13587524 229.29756287 -2.4197105 231.13954275 -5.3359375 232.59765625 C-10.46435491 233.45419954 -14.44693998 232.96620073 -18.8984375 230.22265625 C-24.00980858 226.41574966 -27.69542594 221.78794382 -31.3359375 216.59765625 C-31.93664062 215.74429688 -32.53734375 214.8909375 -33.15625 214.01171875 C-52.54881464 184.39545895 -64.42838223 148.60008715 -70.89404297 113.95019531 C-71.19875522 112.32798136 -71.52740593 110.71014376 -71.87548828 109.09667969 C-73.66892333 100.009301 -73.70817819 90.96436836 -73.70654297 81.73681641 C-73.7108966 78.99838087 -73.7472699 76.26158752 -73.78515625 73.5234375 C-73.94559092 48.4729114 -67.30365174 24.6168435 -49.86328125 5.89453125 C-35.86111731 -6.83077385 -16.28981856 -9.77933923 0 0 Z " fill="#FDFEFE" transform="translate(195.3359375,327.40234375)"/>
  <path d="M0 0 C1.36368965 -0.01902626 1.36368965 -0.01902626 2.75492859 -0.03843689 C3.73919327 -0.03550125 4.72345795 -0.03256561 5.73754883 -0.02954102 C6.76076736 -0.03478287 7.7839859 -0.04002472 8.83821106 -0.04542542 C11.01289972 -0.05185803 13.18762312 -0.05049268 15.36230469 -0.04199219 C18.63713779 -0.03359456 21.91015891 -0.06204266 25.18481445 -0.09399414 C44.89385998 -0.16156619 63.7248792 2.28105486 78.73364258 16.46655273 C90.60092175 29.43168593 94.16783429 44.1663956 93.81567383 61.28295898 C93.18972539 75.26940022 88.12704262 88.24871988 78.06958008 98.15405273 C73.91769446 101.61920765 69.53506169 104.29060473 64.75708008 106.77905273 C64.15065674 107.10099609 63.5442334 107.42293945 62.91943359 107.75463867 C49.82582078 114.12532427 35.74911309 113.88025993 21.53515625 113.79516602 C18.28775251 113.77889325 15.04155853 113.79518572 11.79418945 113.81420898 C9.72582734 113.81222976 7.65746597 113.80839275 5.58911133 113.80249023 C4.62044632 113.80856293 3.65178131 113.81463562 2.65376282 113.82089233 C1.75820175 113.81143585 0.86264069 113.80197937 -0.06005859 113.79223633 C-0.84611984 113.78984955 -1.63218109 113.78746277 -2.44206238 113.78500366 C-5.07831694 113.29531406 -5.83411709 112.48566397 -7.49291992 110.40405273 C-7.87044334 108.37223053 -7.87044334 108.37223053 -7.87387085 106.00134277 C-7.88233032 105.10123978 -7.89078979 104.20113678 -7.89950562 103.27375793 C-7.89039658 101.79621284 -7.89039658 101.79621284 -7.88110352 100.28881836 C-7.88636047 99.24956711 -7.89161743 98.21031586 -7.89703369 97.13957214 C-7.91026259 93.6963305 -7.90148514 90.25354927 -7.89135742 86.81030273 C-7.89337732 84.42280997 -7.89628805 82.0353178 -7.90005493 79.64782715 C-7.90448221 74.64089084 -7.89803408 69.63411495 -7.8840332 64.62719727 C-7.86694129 58.20073936 -7.87678028 51.7746573 -7.8947506 45.3482132 C-7.90557741 40.41722773 -7.90214712 35.48633175 -7.89436722 30.55534363 C-7.89236217 28.18539892 -7.89483512 25.81544616 -7.90180588 23.44551086 C-7.90940206 20.13654982 -7.89784136 16.82820231 -7.88110352 13.51928711 C-7.88717621 12.53425705 -7.8932489 11.54922699 -7.89950562 10.53434753 C-7.89104614 9.63424454 -7.88258667 8.73414154 -7.87387085 7.8067627 C-7.87273977 7.02436974 -7.8716087 6.24197678 -7.87044334 5.43587494 C-7.03572116 0.94341972 -4.17632007 0.02828374 0 0 Z " fill="#FDFEFE" transform="translate(267.492919921875,452.595947265625)"/>
  <path d="M0 0 C1.23266602 -0.00580078 1.23266602 -0.00580078 2.49023438 -0.01171875 C3.34037109 -0.00011719 4.19050781 0.01148438 5.06640625 0.0234375 C6.33581055 0.00603516 6.33581055 0.00603516 7.63085938 -0.01171875 C12.45439227 0.01094468 15.80404047 0.18371326 19.62890625 3.3984375 C24.29652709 8.1177529 27.79359579 13.5168599 31.25390625 19.1484375 C32.30708768 20.83997078 33.36047906 22.53137334 34.4140625 24.22265625 C34.94660645 25.08165527 35.47915039 25.9406543 36.02783203 26.82568359 C37.56883832 29.3019148 39.1243387 31.76817506 40.6875 34.23046875 C41.1913623 35.02420898 41.69522461 35.81794922 42.21435547 36.63574219 C43.14384819 38.09896346 44.07379564 39.56189606 45.00439453 41.02441406 C50.31773963 49.41714981 55.46046689 57.91605006 60.62890625 66.3984375 C60.6189135 65.30635735 60.6189135 65.30635735 60.60871887 64.19221497 C60.54853626 57.3213835 60.50289551 50.45059159 60.47346973 43.57956409 C60.45783282 40.04731284 60.43663124 36.51527991 60.40258789 32.9831543 C60.36367022 28.91973813 60.34918078 24.85655029 60.3359375 20.79296875 C60.32045364 19.5282222 60.30496979 18.26347565 60.28901672 16.96040344 C60.28879013 15.77955673 60.28856354 14.59871002 60.28833008 13.38208008 C60.27833733 11.82654167 60.27833733 11.82654167 60.2681427 10.23957825 C60.69029229 6.91500067 61.64437862 5.07949531 63.62890625 2.3984375 C67.43232869 -0.13717746 70.59149728 -0.00552223 75.00390625 -0.0390625 C75.75929688 -0.07193359 76.5146875 -0.10480469 77.29296875 -0.13867188 C78.39898438 -0.14930664 78.39898438 -0.14930664 79.52734375 -0.16015625 C80.52773682 -0.18033813 80.52773682 -0.18033813 81.54833984 -0.20092773 C85.03873041 0.80457671 86.40993169 2.54670886 88.62890625 5.3984375 C89.36743221 8.77692265 89.3021009 12.09408317 89.26000977 15.54125977 C89.26716507 16.55968964 89.27432037 17.57811951 89.2816925 18.62741089 C89.29858731 21.99034617 89.27917256 25.35195004 89.2578125 28.71484375 C89.25864105 31.05224213 89.26109993 33.38964045 89.26512146 35.72703552 C89.26797993 40.62378493 89.25327154 45.52007706 89.22583008 50.41674805 C89.19172903 56.69744883 89.19777167 62.97733284 89.21649265 69.25807285 C89.2270536 74.08362146 89.21813325 78.90897954 89.20310783 83.73451042 C89.19792022 86.05059176 89.19841481 88.36669294 89.20465279 90.68277168 C89.21009458 93.9172875 89.18976245 97.15062783 89.16235352 100.38500977 C89.16887939 101.34460098 89.17540527 102.3041922 89.18212891 103.29286194 C89.08862356 109.77244557 89.08862356 109.77244557 86.72502136 112.99093628 C83.10061661 115.42465478 79.62256554 115.01651701 75.37890625 114.9609375 C74.14720703 114.99670898 74.14720703 114.99670898 72.890625 115.03320312 C66.65393003 115.01837738 62.21632017 113.72872768 57.62890625 109.3984375 C54.72318016 105.71037225 52.30185883 101.79043783 49.87890625 97.7734375 C48.82965563 96.08297817 47.780399 94.39252233 46.73022461 92.70263672 C45.68207301 91.01015947 44.6427628 89.31221727 43.60351562 87.61425781 C41.31652892 83.8897043 38.98015378 80.19880215 36.63305664 76.51196289 C22.88155676 54.90373852 22.88155676 54.90373852 20.62890625 50.3984375 C20.64000931 51.12649094 20.65111237 51.85454437 20.66255188 52.60466003 C20.76285488 59.47539877 20.83892232 66.34602768 20.88796711 73.21731091 C20.91403013 76.74976595 20.94936491 80.28161463 21.00610352 83.8137207 C21.07096689 87.87717411 21.09511357 91.93999348 21.1171875 96.00390625 C21.14299393 97.2686528 21.16880035 98.53339935 21.19538879 99.83647156 C21.19817617 108.55201559 21.19817617 108.55201559 18.40942383 112.69848633 C15.49399758 114.48091788 14.03054396 115.02088818 10.65234375 114.9921875 C9.73453125 114.98960937 8.81671875 114.98703125 7.87109375 114.984375 C6.92492187 114.95601562 5.97875 114.92765625 5.00390625 114.8984375 C4.05 114.90101563 3.09609375 114.90359375 2.11328125 114.90625 C-4.84180721 114.80829101 -4.84180721 114.80829101 -6.98367405 113.1497345 C-8.73889147 110.93417781 -8.75014216 109.76322988 -8.7587738 106.95776367 C-8.76867844 106.04924652 -8.77858307 105.14072937 -8.78878784 104.2046814 C-8.78428619 103.2103006 -8.77978455 102.2159198 -8.77514648 101.19140625 C-8.78200974 100.14240143 -8.78887299 99.09339661 -8.79594421 98.01260376 C-8.81428124 94.53691159 -8.81036509 91.06166777 -8.8046875 87.5859375 C-8.80924568 85.17602388 -8.81455016 82.76611157 -8.8205719 80.35620117 C-8.82951638 75.30219242 -8.82706424 70.24834157 -8.81713867 65.19433594 C-8.80564219 58.70726868 -8.82586471 52.22074519 -8.85505581 45.73374939 C-8.87337183 40.75643432 -8.8731346 35.77925069 -8.86741829 30.8019104 C-8.86726454 28.40962969 -8.87335288 26.01734036 -8.88570976 23.62509155 C-8.90053235 20.28486666 -8.89000667 16.94566101 -8.87280273 13.60546875 C-8.8824707 12.61108795 -8.89213867 11.61670715 -8.90209961 10.5921936 C-8.89226547 9.68367645 -8.88243134 8.7751593 -8.87229919 7.83911133 C-8.87208991 7.04934402 -8.87188063 6.25957672 -8.871665 5.44587708 C-8.37109375 3.3984375 -8.37109375 3.3984375 -6.47219944 1.64515686 C-4.09560044 0.23496983 -2.74214151 0.01248455 0 0 Z " fill="#FDFEFE" transform="translate(565.37109375,451.6015625)"/>
  <path d="M0 0 C6.48411061 -0.14125776 12.96641556 -0.20670515 19.45196533 -0.22967529 C21.74727475 -0.24133161 24.04255435 -0.26199092 26.33770752 -0.29119873 C29.68432684 -0.333621 33.03016045 -0.34999184 36.37701416 -0.36029053 C37.40300217 -0.37779861 38.42899017 -0.3953067 39.48606873 -0.41334534 C46.49325424 -0.39181897 46.49325424 -0.39181897 49.81964111 1.8303833 C51.27018375 4.21753374 51.6913957 5.48450732 51.70904541 8.25299072 C51.71677979 9.42474854 51.71677979 9.42474854 51.72467041 10.62017822 C51.70920166 11.42713135 51.69373291 12.23408447 51.67779541 13.06549072 C51.70099854 14.27592041 51.70099854 14.27592041 51.72467041 15.51080322 C51.71951416 16.2919751 51.71435791 17.07314697 51.70904541 17.87799072 C51.70453369 18.58568604 51.70002197 19.29338135 51.69537354 20.02252197 C50.90058597 23.15968344 49.84369323 24.21403033 47.17779541 26.06549072 C44.12477037 26.61137129 41.12995569 26.53085591 38.03717041 26.45611572 C37.1549884 26.45045593 36.2728064 26.44479614 35.3638916 26.43896484 C32.55130328 26.41660663 29.73999746 26.36641204 26.92779541 26.31549072 C25.01895967 26.29542497 23.11010392 26.27717433 21.20123291 26.26080322 C16.52586438 26.22014784 11.85326215 26.14185951 7.17779541 26.06549072 C7.17779541 32.33549072 7.17779541 38.60549072 7.17779541 45.06549072 C9.82552979 45.0422876 12.47326416 45.01908447 15.20123291 44.99517822 C17.75949626 44.9795904 20.31775437 44.96744072 22.8760376 44.95562744 C24.65698608 44.94555641 26.43791798 44.93189887 28.21881104 44.91461182 C30.77549324 44.8904116 33.33195726 44.87901888 35.88873291 44.87017822 C37.0872438 44.85469437 37.0872438 44.85469437 38.30996704 44.83889771 C40.26736761 44.83849846 42.22422618 44.94308004 44.17779541 45.06549072 C46.62766473 47.51536004 46.43410852 48.20256873 46.44342041 51.56549072 C46.4472876 52.89580322 46.4472876 52.89580322 46.45123291 54.25299072 C46.44349854 55.18111572 46.43576416 56.10924072 46.42779541 57.06549072 C46.43939697 58.45767822 46.43939697 58.45767822 46.45123291 59.87799072 C46.44865479 60.76486572 46.44607666 61.65174072 46.44342041 62.56549072 C46.44116455 63.38017822 46.43890869 64.19486572 46.43658447 65.03424072 C46.17779541 67.06549072 46.17779541 67.06549072 44.17779541 69.06549072 C41.38094744 69.24074127 38.68451461 69.29692261 35.88873291 69.26080322 C34.66109726 69.25655838 34.66109726 69.25655838 33.40866089 69.25222778 C30.78989148 69.24101604 28.17146177 69.21591001 25.55279541 69.19049072 C23.77936284 69.18046219 22.00592492 69.17133612 20.23248291 69.16314697 C15.88068366 69.14277338 11.5296206 69.10362746 7.17779541 69.06549072 C7.17779541 75.33549072 7.17779541 81.60549072 7.17779541 88.06549072 C11.67340088 88.01328369 11.67340088 88.01328369 16.25982666 87.96002197 C19.15898689 87.9366332 22.05813665 87.91841274 24.95733643 87.9006958 C26.97398575 87.88559893 28.9906022 87.86511957 31.00714111 87.83917236 C33.90395212 87.80282861 36.80032947 87.78577353 39.69732666 87.77252197 C40.60054153 87.75703812 41.50375641 87.74155426 42.43434143 87.7256012 C43.27498642 87.7253746 44.11563141 87.72514801 44.98175049 87.72491455 C46.09094597 87.7149218 46.09094597 87.7149218 47.22254944 87.70472717 C49.73572868 88.16843531 50.6168655 89.08183568 52.17779541 91.06549072 C52.80063871 94.18121261 52.6413461 97.33191143 52.61529541 100.50299072 C52.63527588 101.36215088 52.65525635 102.22131104 52.67584229 103.10650635 C52.67487549 104.35270752 52.67487549 104.35270752 52.67388916 105.62408447 C52.67574219 106.38003906 52.67759521 107.13599365 52.67950439 107.91485596 C51.95984459 110.99976265 50.63810119 112.0985182 48.17779541 114.06549072 C45.21134949 114.56669617 45.21134949 114.56669617 41.71270752 114.56719971 C40.40132309 114.57658066 39.08993866 114.58596161 37.73881531 114.59562683 C36.31091661 114.58514963 34.88302421 114.57378076 33.45513916 114.56158447 C31.98830595 114.56173947 30.52147233 114.56322863 29.05464172 114.56599426 C25.98377327 114.56737762 22.91337225 114.5548301 19.84259033 114.53204346 C15.90579945 114.50363331 11.96978361 114.50640346 8.03293514 114.51913357 C5.00545119 114.52608649 1.97814656 114.51830645 -1.0493145 114.50587654 C-2.50098419 114.50135999 -3.95267312 114.50102703 -5.40434456 114.50494194 C-7.4317657 114.50785064 -9.45918329 114.48919974 -11.48651123 114.46954346 C-12.64026749 114.46414047 -13.79402374 114.45873749 -14.98274231 114.45317078 C-17.82220459 114.06549072 -17.82220459 114.06549072 -19.65568542 112.66523743 C-21.64282463 109.94010483 -21.95070256 108.22402046 -21.96937561 104.90365601 C-21.97653091 104.0316153 -21.98368622 103.15957458 -21.99105835 102.2611084 C-21.99374725 101.30210632 -21.99643616 100.34310425 -21.99920654 99.3550415 C-22.00577774 98.34680328 -22.01234894 97.33856506 -22.01911926 96.29977417 C-22.03887827 92.95344983 -22.05051956 89.60717038 -22.06048584 86.26080322 C-22.06456137 85.12024349 -22.06863689 83.97968376 -22.07283592 82.80456161 C-22.09370597 76.76995778 -22.10800468 70.73537677 -22.11737061 64.70074463 C-22.12844783 58.4570496 -22.16286051 52.21370972 -22.2025423 45.97014046 C-22.22864074 41.17810385 -22.23705633 36.3861528 -22.24065208 31.59405136 C-22.24553417 29.29189526 -22.25719389 26.98974338 -22.27569008 24.6876564 C-22.2999411 21.46972434 -22.29914217 18.25272375 -22.29217529 15.034729 C-22.30498535 14.07977539 -22.31779541 13.12482178 -22.33099365 12.14093018 C-22.28006152 5.70324098 -22.28006152 5.70324098 -19.96588135 2.47981262 C-17.09762636 0.5874397 -15.11166595 0.46938156 -11.67767334 0.33502197 C-11.03976364 0.30713089 -10.40185394 0.27923981 -9.74461365 0.25050354 C-6.49735585 0.12597079 -3.2486984 0.07538773 0 0 Z " fill="#FDFEFE" transform="translate(397.82220458984375,451.93450927734375)"/>
  <path d="M0 0 C2.93042656 -0.04957219 5.86087006 -0.08369855 8.79156494 -0.11283875 C10.19501624 -0.12801787 11.59843013 -0.14721239 13.00177002 -0.17051697 C14.96412415 -0.20012625 16.92677606 -0.20746239 18.88934326 -0.21382141 C20.00534912 -0.22316711 21.12135498 -0.23251282 22.2711792 -0.24214172 C25.54519021 0.16253624 26.92563242 0.68982606 29.15496826 3.11430359 C29.64080811 5.35087585 29.64080811 5.35087585 29.61590576 7.93070984 C29.61203857 8.85947937 29.60817139 9.7882489 29.60418701 10.74516296 C29.56744873 12.19632507 29.56744873 12.19632507 29.52996826 13.67680359 C29.5286792 14.64811218 29.52739014 15.61942078 29.52606201 16.62016296 C29.43583341 23.83343844 29.43583341 23.83343844 27.15496826 26.11430359 C24.14187875 26.28976841 21.22186372 26.34557804 18.20965576 26.30961609 C17.32464386 26.30678619 16.43963196 26.3039563 15.52780151 26.30104065 C12.69505414 26.28982599 9.86262043 26.26471929 7.02996826 26.23930359 C5.11200407 26.22927544 3.19403493 26.2201493 1.27606201 26.21195984 C-3.43118794 26.19158213 -8.13775784 26.15243632 -12.84503174 26.11430359 C-12.84503174 32.38430359 -12.84503174 38.65430359 -12.84503174 45.11430359 C-10.26948486 45.09110046 -7.69393799 45.06789734 -5.04034424 45.04399109 C-2.55157972 45.02840287 -0.0628206 45.01625341 2.42596436 45.00444031 C4.15841091 44.99436983 5.89084042 44.9807127 7.62322998 44.96342468 C10.11041465 44.93922197 12.59737501 44.9278312 15.08465576 44.91899109 C16.25035599 44.90350723 16.25035599 44.90350723 17.43960571 44.88771057 C19.3462232 44.88731088 21.25227862 44.99198219 23.15496826 45.11430359 C25.60483758 47.5641729 25.41128137 48.25138159 25.42059326 51.61430359 C25.42446045 52.94461609 25.42446045 52.94461609 25.42840576 54.30180359 C25.42067139 55.22992859 25.41293701 56.15805359 25.40496826 57.11430359 C25.41656982 58.50649109 25.41656982 58.50649109 25.42840576 59.92680359 C25.42582764 60.81367859 25.42324951 61.70055359 25.42059326 62.61430359 C25.4183374 63.42899109 25.41608154 64.24367859 25.41375732 65.08305359 C25.15496826 67.11430359 25.15496826 67.11430359 23.15496826 69.11430359 C20.43011098 69.28948106 17.80837464 69.34579492 15.08465576 69.30961609 C14.28842804 69.30678619 13.49220032 69.3039563 12.67184448 69.30104065 C10.12440063 69.28982999 7.57730615 69.26472421 5.02996826 69.23930359 C3.30471292 69.22927492 1.57945207 69.22014887 -0.14581299 69.21195984 C-4.37912936 69.19158777 -8.61168869 69.15244181 -12.84503174 69.11430359 C-12.84503174 75.38430359 -12.84503174 81.65430359 -12.84503174 88.11430359 C-9.99233643 88.09110046 -7.13964111 88.06789734 -4.20050049 88.04399109 C-1.44033249 88.02839758 1.31983062 88.01625112 4.08001709 88.00444031 C5.99963575 87.9943772 7.91923907 87.98072543 9.83880615 87.96342468 C12.59657578 87.93918995 15.3541429 87.92782367 18.11199951 87.91899109 C19.40120049 87.90350723 19.40120049 87.90350723 20.71644592 87.88771057 C21.51704941 87.88755951 22.31765289 87.88740845 23.14251709 87.88725281 C24.19841789 87.88059097 24.19841789 87.88059097 25.27565002 87.87379456 C27.15496826 88.11430359 27.15496826 88.11430359 30.15496826 90.11430359 C30.81408952 93.55169066 30.61796492 97.05876084 30.59246826 100.55180359 C30.61244873 101.519245 30.6324292 102.4866864 30.65301514 103.48344421 C30.65204834 104.87659851 30.65204834 104.87659851 30.65106201 106.29789734 C30.65291504 107.14924255 30.65476807 108.00058777 30.65667725 108.87773132 C30.15496826 111.11430359 30.15496826 111.11430359 28.52194214 112.72982788 C25.44680098 114.52852041 23.33665511 114.49502321 19.78167725 114.50248718 C17.84463173 114.51667191 17.84463173 114.51667191 15.86845398 114.53114319 C14.46265353 114.52577391 13.05685588 114.51962106 11.65106201 114.51274109 C10.20664829 114.51476255 8.76223555 114.51767459 7.31782532 114.5214386 C4.29412089 114.52585719 1.27068271 114.51944523 -1.75299072 114.50541687 C-5.62922336 114.48830955 -9.50483353 114.49817832 -13.38104343 114.51613426 C-16.36218461 114.52697181 -19.34317804 114.52352624 -22.32432365 114.51575089 C-23.7536724 114.51374957 -25.18303455 114.51620576 -26.61236763 114.52318954 C-28.60862091 114.53080429 -30.60492124 114.51714096 -32.60113525 114.50248718 C-34.3051223 114.49890701 -34.3051223 114.49890701 -36.04353333 114.49525452 C-38.84503174 114.11430359 -38.84503174 114.11430359 -40.67277527 112.77754211 C-42.70141177 109.89924161 -42.97259959 107.32278506 -42.99220276 103.91487122 C-42.99935806 103.05972931 -43.00651337 102.2045874 -43.0138855 101.3235321 C-43.0165744 100.38839783 -43.01926331 99.45326355 -43.02203369 98.48979187 C-43.02860489 97.50252106 -43.03517609 96.51525024 -43.04194641 95.49806213 C-43.06167774 92.22691271 -43.07334035 88.95580914 -43.08331299 85.68461609 C-43.08942628 84.01012201 -43.08942628 84.01012201 -43.09566307 82.30179977 C-43.11652094 76.39571568 -43.13082513 70.48965483 -43.14019775 64.58354187 C-43.15127462 58.47785388 -43.18569034 52.37252908 -43.22536945 46.26696968 C-43.251485 41.5761191 -43.25988499 36.88535583 -43.26347923 32.19443893 C-43.26835658 29.94334835 -43.28000302 27.69226195 -43.29851723 25.44124222 C-43.32280531 22.29306771 -43.32196255 19.14584344 -43.31500244 15.99760437 C-43.3278125 15.06651855 -43.34062256 14.13543274 -43.3538208 13.1761322 C-43.32001927 8.98596845 -43.19503649 6.69662243 -40.99589539 3.03781128 C-38.12125468 0.46703302 -36.40706047 0.46115571 -32.57940674 0.40727234 C-30.67723389 0.36328308 -30.67723389 0.36328308 -28.7366333 0.31840515 C-27.35610371 0.31189439 -25.97556908 0.30638475 -24.59503174 0.30180359 C-23.17540928 0.28105823 -21.75581129 0.25857162 -20.33624268 0.23442078 C-17.36385441 0.18915788 -14.39193877 0.1607657 -11.41925049 0.14506531 C-7.61212322 0.12420629 -3.80654489 0.06801238 0 0 Z " fill="#FCFDFD" transform="translate(508.84503173828125,451.8856964111328)"/>
  <path d="M0 0 C24.76614699 0 24.76614699 0 33.8125 8.75390625 C41.05767385 16.46699758 42.48471312 23.28581924 42.42431641 33.63378906 C42.13431343 42.4895846 39.47220188 49.82198911 33 56 C22.21051557 62.74622008 13.45901228 62 0 62 C0 41.54 0 21.08 0 0 Z " fill="#219F95" transform="translate(289,478)"/>
  <path d="M0 0 C6.29701556 3.59829461 10.89152867 8.53974409 13.15234375 15.51171875 C14.90664814 24.51521481 14.64107397 34.04704656 9.625 41.9375 C4.53890119 47.87878357 -1.25287525 51.32953267 -9.0078125 52.25 C-16.54896095 52.58609575 -22.63387122 51.22736422 -28.3828125 46.171875 C-35.720777 38.3733688 -37.02795598 31.24601116 -36.78515625 20.63671875 C-36.00090716 13.56353889 -33.20453233 8.31683579 -28 3.5 C-19.55741407 -2.88165489 -9.76914642 -4.46463253 0 0 Z " fill="#FAFCFC" transform="translate(289.375,601.0625)"/>
  <path d="M0 0 C1.9375 1.08984375 1.9375 1.08984375 4.875 3.08984375 C4.875 1.76984375 4.875 0.44984375 4.875 -0.91015625 C7.845 -0.91015625 10.815 -0.91015625 13.875 -0.91015625 C13.94934992 4.81898178 14.00369672 10.54783676 14.03979492 16.27734375 C14.05484899 18.22498469 14.0752968 20.17259191 14.10131836 22.12011719 C14.13785053 24.92521503 14.15476033 27.72986329 14.16796875 30.53515625 C14.18345261 31.40101349 14.19893646 32.26687073 14.21488953 33.15896606 C14.21629133 38.23428788 13.69366074 41.69193936 10.875 46.08984375 C5.30723286 51.36457051 0.20354819 52.49527775 -7.26171875 52.34375 C-11.41640271 51.97532646 -15.49826727 51.22602918 -19.125 49.08984375 C-20.45703125 47.15234375 -20.45703125 47.15234375 -21.125 45.08984375 C-19.75 42.33984375 -19.75 42.33984375 -18.125 40.08984375 C-16.84882812 40.33154297 -16.84882812 40.33154297 -15.546875 40.578125 C-12.10992381 41.09209829 -8.84813258 41.25733723 -5.375 41.27734375 C-4.24578125 41.29152344 -3.1165625 41.30570313 -1.953125 41.3203125 C1.0104444 41.38595771 1.0104444 41.38595771 2.875 39.08984375 C3.04181109 36.00636549 3.04181109 36.00636549 2.875 33.08984375 C2.235625 33.58484375 1.59625 34.07984375 0.9375 34.58984375 C-3.20985434 36.62120098 -6.58484449 36.78293782 -11.125 36.08984375 C-16.44535674 34.24698046 -19.428285 30.9646747 -22.125 26.08984375 C-24.08945997 20.19646384 -24.1112696 13.46502674 -21.625 7.71484375 C-17.11345739 0.02147635 -8.39105032 -3.59396089 0 0 Z " fill="#F9FCFC" transform="translate(794.125,614.91015625)"/>
  <path d="M0 0 C4.75354579 1.5919543 7.91861124 4.28400445 10.5 8.5625 C13.01444363 14.50062803 13.134997 21.26118636 11.26953125 27.40625 C9.32510495 31.66017857 6.99203562 34.44100281 3 37 C-2.63209006 38.87736335 -9.56102582 39.0358356 -15.26953125 37.31640625 C-20.42373117 34.61017056 -23.19967324 30.40098029 -25 25 C-25.70261658 17.87016947 -25.3685383 11.87355301 -21 6 C-14.63289763 -0.51328584 -8.8419896 -0.88936971 0 0 Z " fill="#F9FCFC" transform="translate(701,614)"/>
  <path d="M0 0 C4.92265695 2.2855193 7.81049249 5.71694706 11 10 C13.03439059 16.10317177 13.08046363 23.48083505 10.5 29.4375 C7.91032789 33.7297247 4.75237459 36.3733986 0 38 C-5.78602869 38.80718672 -11.73824455 39.09450117 -17.0625 36.375 C-21.32011951 32.93266934 -23.96111573 29.39043726 -25 24 C-25.48907085 17.77375191 -25.78093544 12.24452335 -22 7 C-14.96050615 0.09086715 -9.91533148 -0.8585226 0 0 Z " fill="#FAFCFC" transform="translate(433,614)"/>
  <path d="M0 0 C3.3 0 6.6 0 10 0 C10.33 5.61 10.66 11.22 11 17 C12.32 16.01 13.64 15.02 15 14 C20.06435498 13.1622304 24.57372039 13.18498308 29.0625 15.75 C32.82792758 20.12275461 33.24426311 23.17695298 33.1953125 28.953125 C33.1924826 29.61334656 33.18965271 30.27356812 33.18673706 30.95379639 C33.17558415 33.05271897 33.15048946 35.15120742 33.125 37.25 C33.11496384 38.67707715 33.1058391 40.10416102 33.09765625 41.53125 C33.07566111 45.02097328 33.04116536 48.51044423 33 52 C30.03 52 27.06 52 24 52 C23.97494385 51.29391602 23.9498877 50.58783203 23.92407227 49.86035156 C23.80792631 46.65672491 23.68528397 43.45337882 23.5625 40.25 C23.52318359 39.13882813 23.48386719 38.02765625 23.44335938 36.8828125 C23.40146484 35.81289063 23.35957031 34.74296875 23.31640625 33.640625 C23.27974854 32.65610352 23.24309082 31.67158203 23.20532227 30.65722656 C23.02401258 28.31076449 22.65668181 26.25281588 22 24 C20.1128125 23.9071875 20.1128125 23.9071875 18.1875 23.8125 C17.47980469 23.77769531 16.77210938 23.74289062 16.04296875 23.70703125 C13.33843788 24.09487028 12.65514109 24.84454114 11 27 C10.51133828 29.59108823 10.51133828 29.59108823 10.5234375 32.5078125 C10.47703125 34.11076172 10.47703125 34.11076172 10.4296875 35.74609375 C10.41164063 36.86113281 10.39359375 37.97617187 10.375 39.125 C10.32423006 41.33603093 10.26975043 43.54698089 10.2109375 45.7578125 C10.19337402 46.7389502 10.17581055 47.72008789 10.15771484 48.73095703 C10 51 10 51 9 52 C7.1875 52.1328125 7.1875 52.1328125 5 52.125 C4.278125 52.12757813 3.55625 52.13015625 2.8125 52.1328125 C1 52 1 52 0 51 C-0.09333705 49.40389018 -0.11745372 47.80366572 -0.11352539 46.20483398 C-0.11344986 45.18385117 -0.11337433 44.16286835 -0.11329651 43.11094666 C-0.10813522 42.0005452 -0.10297394 40.89014374 -0.09765625 39.74609375 C-0.0962413 38.61551041 -0.09482635 37.48492706 -0.09336853 36.32008362 C-0.08775019 32.69252935 -0.07519458 29.06503576 -0.0625 25.4375 C-0.05748736 22.98502693 -0.05292405 20.5325529 -0.04882812 18.08007812 C-0.0377748 12.05336187 -0.02049788 6.02669124 0 0 Z " fill="#FAFCFC" transform="translate(815,600)"/>
  <path d="M0 0 C5.37606544 2.35792344 7.77553261 5.60994441 10 11 C10 14.63 10 18.26 10 22 C2.08 22 -5.84 22 -14 22 C-11.67748574 26.88495525 -11.67748574 26.88495525 -9 28 C-7.06449136 28.09720427 -5.12544208 28.12977914 -3.1875 28.125 C-2.14980469 28.12757813 -1.11210938 28.13015625 -0.04296875 28.1328125 C2.75342942 28.01076175 5.27939879 27.63363355 8 27 C8 29.97 8 32.94 8 36 C1.42903987 39.14701156 -7.38430246 39.32522474 -14.39453125 37.3125 C-18.94157523 34.93496066 -22.04409598 31.02065669 -23.5859375 26.1484375 C-24.63762487 20.69156909 -24.63372146 15.05959475 -23 9.75 C-16.59348684 0.94104441 -11.05440497 -1.78715283 0 0 Z " fill="#FAFCFC" transform="translate(580,614)"/>
  <path d="M0 0 C2.97 0 5.94 0 9 0 C11.40698082 5.38498712 13.35809761 10.83279666 15.1875 16.4375 C16.115625 19.263125 17.04375 22.08875 18 25 C20.64 16.75 23.28 8.5 26 0 C28.97 0 31.94 0 35 0 C36.44325568 4.32976704 34.6779981 7.49754272 33.17578125 11.61328125 C32.87310837 12.46045212 32.57043549 13.30762299 32.2585907 14.1804657 C31.61478859 15.97503556 30.96636865 17.7679544 30.3137207 19.55932617 C29.32176856 22.28701317 28.3483512 25.0207952 27.37695312 27.75585938 C26.74850418 29.50039966 26.11898079 31.24455335 25.48828125 32.98828125 C25.19955643 33.80097977 24.9108316 34.61367828 24.61335754 35.45100403 C22.20925302 41.99292956 19.34100662 48.4922091 13 52 C9.30817847 52.32329511 5.69527303 52.23297693 2 52 C2 49.36 2 46.72 2 44 C4.97 43.34 7.94 42.68 11 42 C12.53525952 37.27003348 11.20983599 33.86977029 9.47265625 29.43359375 C9.20488876 28.7176857 8.93712128 28.00177765 8.66123962 27.26417542 C7.80674528 24.98397491 6.935856 22.71053594 6.0625 20.4375 C5.19483129 18.16020039 4.33088622 15.88166972 3.47447205 13.60011292 C2.94177205 12.18284365 2.40228805 10.76810108 1.85523987 9.35630798 C0.57666756 5.97318022 0 3.67620839 0 0 Z " fill="#F8FBFB" transform="translate(593,614)"/>
  <path d="M0 0 C4.8676936 2.51343904 7.3449695 5.81936963 9 11 C9.7495674 17.60008698 9.43910544 23.26815759 6 29 C3.11234827 32.47999055 1.61843567 33.70328679 -2.8125 34.515625 C-7.9877589 34.80026424 -11.9677552 34.67813581 -16.125 31.375 C-21.02093855 26.24081626 -21.50832551 20.62391742 -21.38671875 13.7578125 C-20.65378428 8.53102732 -17.9881984 4.85078512 -14.19140625 1.31640625 C-9.8503439 -1.29132639 -4.86161733 -0.78802686 0 0 Z " fill="#209E94" transform="translate(284,609)"/>
  <path d="M0 0 C1.47906892 -0.02689216 2.95827483 -0.04634621 4.4375 -0.0625 C5.26121094 -0.07410156 6.08492188 -0.08570313 6.93359375 -0.09765625 C9 0 9 0 10 1 C10.14576429 2.82862799 10.22729002 4.66245914 10.28125 6.49609375 C10.31863281 7.61177734 10.35601562 8.72746094 10.39453125 9.87695312 C10.42933594 11.05193359 10.46414063 12.22691406 10.5 13.4375 C10.56869107 15.74882736 10.64140371 18.06003983 10.71875 20.37109375 C10.74904297 21.40161865 10.77933594 22.43214355 10.81054688 23.49389648 C10.84076615 25.9969638 10.84076615 25.9969638 12 28 C16.65052872 28.26932521 16.65052872 28.26932521 21 27 C22.01587978 23.95236066 22.19804406 21.65281033 22.31640625 18.45703125 C22.35830078 17.38388672 22.40019531 16.31074219 22.44335938 15.20507812 C22.48267578 14.08552734 22.52199219 12.96597656 22.5625 11.8125 C22.60568359 10.68134766 22.64886719 9.55019531 22.69335938 8.38476562 C22.79949099 5.58996646 22.90154385 2.79507838 23 0 C24.47906892 -0.02689216 25.95827483 -0.04634621 27.4375 -0.0625 C28.26121094 -0.07410156 29.08492188 -0.08570313 29.93359375 -0.09765625 C32 0 32 0 33 1 C33.10095564 3.65456193 33.13970998 6.28255176 33.1328125 8.9375 C33.13376923 9.732771 33.13472595 10.52804199 33.13571167 11.34741211 C33.13639343 13.0320646 33.13453943 14.71671971 33.13037109 16.40136719 C33.12502275 18.98899197 33.13031619 21.57644316 33.13671875 24.1640625 C33.13605797 25.79687539 33.1347768 27.42968816 33.1328125 29.0625 C33.13483673 29.84165771 33.13686096 30.62081543 33.13894653 31.42358398 C33.11495105 36.88504895 33.11495105 36.88504895 32 38 C26.1589404 38.37086093 26.1589404 38.37086093 24 38 C23.34 37.01 22.68 36.02 22 35 C21.17822266 35.72896484 21.17822266 35.72896484 20.33984375 36.47265625 C16.23331419 39.15321227 11.73055413 38.63167637 7 38 C2.81109874 35.69182992 1.43012202 33.46550704 0 29 C-0.22705078 25.77026367 -0.22705078 25.77026367 -0.1953125 22.16796875 C-0.18886719 20.87568359 -0.18242187 19.58339844 -0.17578125 18.25195312 C-0.15907327 16.8971327 -0.14214342 15.54231499 -0.125 14.1875 C-0.11496003 12.81315749 -0.10583596 11.43880797 -0.09765625 10.06445312 C-0.07411242 6.70945683 -0.04122567 3.35481801 0 0 Z " fill="#F7FBFB" transform="translate(309,614)"/>
  <path d="M0 0 C0.94552734 0.16242187 0.94552734 0.16242187 1.91015625 0.328125 C2.57015625 1.318125 3.23015625 2.308125 3.91015625 3.328125 C4.45800781 2.84214844 5.00585938 2.35617187 5.5703125 1.85546875 C9.67359642 -0.82296867 14.18295037 -0.31011793 18.91015625 0.328125 C22.57971044 2.42501311 24.39633291 4.43117045 25.91015625 8.328125 C26.13720703 11.53613281 26.13720703 11.53613281 26.10546875 15.28125 C26.10263885 15.94147156 26.09980896 16.60169312 26.09689331 17.28192139 C26.0857404 19.38084397 26.06064571 21.47933242 26.03515625 23.578125 C26.02512009 25.00520215 26.01599535 26.43228602 26.0078125 27.859375 C25.98581736 31.34909828 25.95132161 34.83856923 25.91015625 38.328125 C22.94015625 38.328125 19.97015625 38.328125 16.91015625 38.328125 C16.89033691 37.62204102 16.87051758 36.91595703 16.85009766 36.18847656 C16.7547521 32.98465506 16.64511112 29.78147699 16.53515625 26.578125 C16.50421875 25.46695313 16.47328125 24.35578125 16.44140625 23.2109375 C16.40273438 22.14101563 16.3640625 21.07109375 16.32421875 19.96875 C16.2770874 18.49196777 16.2770874 18.49196777 16.22900391 16.98535156 C16.02083473 13.9870351 16.02083473 13.9870351 13.91015625 10.328125 C10.94015625 10.328125 7.97015625 10.328125 4.91015625 10.328125 C4.05391785 13.7530786 3.72368972 16.47894045 3.59375 19.96875 C3.5309082 21.57363281 3.5309082 21.57363281 3.46679688 23.2109375 C3.42748047 24.32210937 3.38816406 25.43328125 3.34765625 26.578125 C3.30447266 27.70476563 3.26128906 28.83140625 3.21679688 29.9921875 C3.1108361 32.77071454 3.00876483 35.54932891 2.91015625 38.328125 C1.43108733 38.35501716 -0.04811858 38.37447121 -1.52734375 38.390625 C-2.35105469 38.40222656 -3.17476562 38.41382813 -4.0234375 38.42578125 C-6.08984375 38.328125 -6.08984375 38.328125 -7.08984375 37.328125 C-7.19079939 34.67356307 -7.22955373 32.04557324 -7.22265625 29.390625 C-7.22361298 28.595354 -7.2245697 27.80008301 -7.22555542 26.98071289 C-7.22623718 25.2960604 -7.22438318 23.61140529 -7.22021484 21.92675781 C-7.2148665 19.33913303 -7.22015994 16.75168184 -7.2265625 14.1640625 C-7.22590172 12.53124961 -7.22462055 10.89843684 -7.22265625 9.265625 C-7.22468048 8.48646729 -7.22670471 7.70730957 -7.22879028 6.90454102 C-7.19906847 0.13974253 -6.76443431 0.24553301 0 0 Z " fill="#F7FBFA" transform="translate(524.08984375,613.671875)"/>
  <path d="M0 0 C2.97 0 5.94 0 9 0 C9.01981934 0.74161377 9.03963867 1.48322754 9.06005859 2.24731445 C9.15522928 5.60273834 9.26494094 8.95753286 9.375 12.3125 C9.4059375 13.47974609 9.436875 14.64699219 9.46875 15.84960938 C9.50742187 16.96787109 9.54609375 18.08613281 9.5859375 19.23828125 C9.6173584 20.26993408 9.6487793 21.30158691 9.68115234 22.36450195 C9.82674629 25.22843236 9.82674629 25.22843236 12 28 C15.45769191 28.58342353 15.45769191 28.58342353 19 28 C22.04162405 24.98692549 22.40032934 22.54761696 22.51171875 18.359375 C22.54716797 17.28945313 22.58261719 16.21953125 22.61914062 15.1171875 C22.64169922 14.00601563 22.66425781 12.89484375 22.6875 11.75 C22.72166016 10.62335937 22.75582031 9.49671875 22.79101562 8.3359375 C22.87343014 5.55739099 22.94260298 2.77915748 23 0 C25.97 0 28.94 0 32 0 C32 12.54 32 25.08 32 38 C29.36 38 26.72 38 24 38 C23.34 37.01 22.68 36.02 22 35 C21.45085937 35.4846875 20.90171875 35.969375 20.3359375 36.46875 C16.22516931 39.16343416 11.73366315 38.75246091 7 38 C3.82717605 36.33980142 1.62409867 34.24819734 0 31 C-0.08586809 28.67583704 -0.10711043 26.34916693 -0.09765625 24.0234375 C-0.09553383 22.99556625 -0.09553383 22.99556625 -0.09336853 21.94692993 C-0.08776675 19.75624239 -0.07521406 17.5656567 -0.0625 15.375 C-0.05748522 13.89062648 -0.05292228 12.40625135 -0.04882812 10.921875 C-0.03779677 7.28121685 -0.02053099 3.64061836 0 0 Z " fill="#FAFDFC" transform="translate(451,614)"/>
  <path d="M0 0 C3.3 0 6.6 0 10 0 C10 2.97 10 5.94 10 9 C12.1965625 8.9690625 12.1965625 8.9690625 14.4375 8.9375 C15.95832518 8.91607993 17.48071962 8.92820036 19 9 C20 10 20 10 20.09765625 11.84765625 C20.06510417 13.8984375 20.03255208 15.94921875 20 18 C16.7 18 13.4 18 10 18 C10.14017826 20.97953359 10.28686342 23.95849304 10.4375 26.9375 C10.47681641 27.78763672 10.51613281 28.63777344 10.55664062 29.51367188 C10.59853516 30.32255859 10.64042969 31.13144531 10.68359375 31.96484375 C10.72025146 32.7137085 10.75690918 33.46257324 10.79467773 34.23413086 C10.81771063 36.02461326 10.81771063 36.02461326 12 37 C13.34747084 37.23075082 14.70377565 37.41153063 16.0625 37.5625 C17.361875 37.706875 18.66125 37.85125 20 38 C20 40.64 20 43.28 20 46 C15.78706757 48.10646622 10.56313473 47.66317558 6 47 C2.97886404 44.94588036 1.62193097 42.24386194 0 39 C-0.08400529 37.40552536 -0.10727467 35.80759455 -0.09765625 34.2109375 C-0.09282227 32.79941406 -0.09282227 32.79941406 -0.08789062 31.359375 C-0.07951172 30.37453125 -0.07113281 29.3896875 -0.0625 28.375 C-0.05798828 27.38242187 -0.05347656 26.38984375 -0.04882812 25.3671875 C-0.03702145 22.9113984 -0.020554 20.45572896 0 18 C-1.98 18 -3.96 18 -6 18 C-6.09765625 11.84765625 -6.09765625 11.84765625 -6 10 C-5 9 -5 9 -2.4375 8.9375 C-1.633125 8.958125 -0.82875 8.97875 0 9 C0 6.03 0 3.06 0 0 Z " fill="#FAFCFC" transform="translate(858,605)"/>
  <path d="M0 0 C3.3 0 6.6 0 10 0 C10 2.97 10 5.94 10 9 C12.1965625 8.9690625 12.1965625 8.9690625 14.4375 8.9375 C15.95832518 8.91607993 17.48071962 8.92820036 19 9 C20 10 20 10 20.09765625 11.84765625 C20.06510417 13.8984375 20.03255208 15.94921875 20 18 C16.7 18 13.4 18 10 18 C10.14017826 20.97953359 10.28686342 23.95849304 10.4375 26.9375 C10.47681641 27.78763672 10.51613281 28.63777344 10.55664062 29.51367188 C10.59853516 30.32255859 10.64042969 31.13144531 10.68359375 31.96484375 C10.72025146 32.7137085 10.75690918 33.46257324 10.79467773 34.23413086 C10.81771063 36.02461326 10.81771063 36.02461326 12 37 C13.34747084 37.23075082 14.70377565 37.41153063 16.0625 37.5625 C17.361875 37.706875 18.66125 37.85125 20 38 C20 40.64 20 43.28 20 46 C15.65813329 47.4472889 11.53744415 47.52187856 7 47 C2.85433102 44.6680612 1.32208803 42.49275932 0 38 C-0.2374903 34.55823454 -0.18835145 31.13528078 -0.125 27.6875 C-0.11597656 26.75615234 -0.10695313 25.82480469 -0.09765625 24.86523438 C-0.07418263 22.5765564 -0.04134729 20.28841328 0 18 C-1.98 18 -3.96 18 -6 18 C-6.09765625 11.84765625 -6.09765625 11.84765625 -6 10 C-5 9 -5 9 -2.4375 8.9375 C-1.633125 8.958125 -0.82875 8.97875 0 9 C0 6.03 0 3.06 0 0 Z " fill="#FAFCFC" transform="translate(652,605)"/>
  <path d="M0 0 C1.23556641 0.01740234 1.23556641 0.01740234 2.49609375 0.03515625 C3.32238281 0.04417969 4.14867187 0.05320312 5 0.0625 C5.63808594 0.07410156 6.27617187 0.08570313 6.93359375 0.09765625 C7.03510932 6.55707357 7.10510751 13.01628477 7.15332031 19.47631836 C7.17342142 21.67333667 7.20070681 23.87030157 7.23535156 26.06713867 C7.28393468 29.22718491 7.3065778 32.38652312 7.32421875 35.546875 C7.34486389 36.52726242 7.36550903 37.50764984 7.38677979 38.51774597 C7.38821978 42.90543447 7.36934597 45.38717849 5.03417969 49.19458008 C1.4325716 52.45754324 -0.90473998 52.20708435 -5.69140625 52.16015625 C-6.87992187 52.15113281 -8.0684375 52.14210938 -9.29296875 52.1328125 C-10.20820313 52.12121094 -11.1234375 52.10960937 -12.06640625 52.09765625 C-12.06640625 49.45765625 -12.06640625 46.81765625 -12.06640625 44.09765625 C-7.61140625 43.60265625 -7.61140625 43.60265625 -3.06640625 43.09765625 C-3.07426147 41.19705444 -3.07426147 41.19705444 -3.08227539 39.25805664 C-3.10032139 34.57479555 -3.11183678 29.89153754 -3.12133789 25.20825195 C-3.12637903 23.17797327 -3.13321182 21.14769823 -3.1418457 19.11743164 C-3.15392092 16.20588278 -3.15963659 13.29438175 -3.1640625 10.3828125 C-3.16922379 9.46927505 -3.17438507 8.55573761 -3.17970276 7.61451721 C-3.17989793 5.44190198 -3.1285243 3.26938329 -3.06640625 1.09765625 C-2.06640625 0.09765625 -2.06640625 0.09765625 0 0 Z " fill="#F6FBFA" transform="translate(395.06640625,613.90234375)"/>
  <path d="M0 0 C3.3 0 6.6 0 10 0 C10 14.19 10 28.38 10 43 C11.65 43 13.3 43 15 43 C15 45.97 15 48.94 15 52 C5.85833915 52.62805304 5.85833915 52.62805304 2.4375 50.125 C0.31573526 46.98847821 -0.1237682 45.29916009 -0.11352539 41.55029297 C-0.11344986 40.62948944 -0.11337433 39.70868591 -0.11329651 38.75997925 C-0.10813522 37.76410797 -0.10297394 36.76823669 -0.09765625 35.7421875 C-0.0962413 34.72399933 -0.09482635 33.70581116 -0.09336853 32.6567688 C-0.087759 29.39614965 -0.07520488 26.13559849 -0.0625 22.875 C-0.05748623 20.66796974 -0.05292311 18.46093841 -0.04882812 16.25390625 C-0.03778647 10.83591119 -0.02051543 5.41796714 0 0 Z " fill="#F8FBFB" transform="translate(735,600)"/>
  <path d="M0 0 C2.64 0 5.28 0 8 0 C8.66 0.99 9.32 1.98 10 3 C10.680625 2.505 11.36125 2.01 12.0625 1.5 C15.59465009 -0.30365111 18.08636991 -0.23021353 22 0 C22 3.3 22 6.6 22 10 C20.93458984 10.18175781 20.93458984 10.18175781 19.84765625 10.3671875 C18.92855469 10.53476562 18.00945312 10.70234375 17.0625 10.875 C15.68771484 11.11863281 15.68771484 11.11863281 14.28515625 11.3671875 C13.53105469 11.57601562 12.77695312 11.78484375 12 12 C10.74294503 14.51410994 10.8086941 16.38041405 10.71875 19.19140625 C10.68136719 20.21814453 10.64398438 21.24488281 10.60546875 22.30273438 C10.53503 24.47981363 10.46471795 26.65689698 10.39453125 28.83398438 C10.35714844 29.85943359 10.31976563 30.88488281 10.28125 31.94140625 C10.23581055 33.35981812 10.23581055 33.35981812 10.18945312 34.80688477 C10 37 10 37 9 38 C6.03 38 3.06 38 0 38 C0 25.46 0 12.92 0 0 Z " fill="#F3F9F9" transform="translate(349,614)"/>
  <path d="M0 0 C1.27875 -0.061875 2.5575 -0.12375 3.875 -0.1875 C4.95394531 -0.23970703 4.95394531 -0.23970703 6.0546875 -0.29296875 C6.69664062 -0.19628906 7.33859375 -0.09960938 8 0 C8.66 0.99 9.32 1.98 10 3 C10.680625 2.505 11.36125 2.01 12.0625 1.5 C15.59465009 -0.30365111 18.08636991 -0.23021353 22 0 C22 3.3 22 6.6 22 10 C20.01432292 10.16276042 18.02864583 10.32552083 16.04296875 10.48828125 C13.45540647 11.13640871 12.63645534 11.9007894 11 14 C10.51201015 16.49303591 10.51201015 16.49303591 10.5234375 19.2890625 C10.47703125 20.82433594 10.47703125 20.82433594 10.4296875 22.390625 C10.41164063 23.45796875 10.39359375 24.5253125 10.375 25.625 C10.32422578 27.74228496 10.2697452 29.85948544 10.2109375 31.9765625 C10.19337402 32.91580566 10.17581055 33.85504883 10.15771484 34.82275391 C10 37 10 37 9 38 C7.1875 38.1328125 7.1875 38.1328125 5 38.125 C4.278125 38.12757813 3.55625 38.13015625 2.8125 38.1328125 C1 38 1 38 0 37 C-0.08858646 34.26105915 -0.11523479 31.5474673 -0.09765625 28.80859375 C-0.0962413 27.98875504 -0.09482635 27.16891632 -0.09336853 26.32423401 C-0.08775289 23.69528618 -0.07519779 21.06642227 -0.0625 18.4375 C-0.05748701 16.65950643 -0.05292376 14.88151154 -0.04882812 13.10351562 C-0.03777839 8.73564455 -0.02050331 4.36783652 0 0 Z " fill="#FAFCFC" transform="translate(490,614)"/>
  <path d="M0 0 C0.721875 0.00257813 1.44375 0.00515625 2.1875 0.0078125 C2.909375 0.00523437 3.63125 0.00265625 4.375 0 C6.1875 0.1328125 6.1875 0.1328125 7.1875 1.1328125 C7.28845564 3.78737443 7.32720998 6.41536426 7.3203125 9.0703125 C7.32126923 9.8655835 7.32222595 10.66085449 7.32321167 11.48022461 C7.32389343 13.1648771 7.32203943 14.84953221 7.31787109 16.53417969 C7.31252275 19.12180447 7.31781619 21.70925566 7.32421875 24.296875 C7.32355797 25.92968789 7.3222768 27.56250066 7.3203125 29.1953125 C7.32233673 29.97447021 7.32436096 30.75362793 7.32644653 31.55639648 C7.30245105 37.01786145 7.30245105 37.01786145 6.1875 38.1328125 C4.375 38.265625 4.375 38.265625 2.1875 38.2578125 C1.465625 38.26039063 0.74375 38.26296875 0 38.265625 C-1.8125 38.1328125 -1.8125 38.1328125 -2.8125 37.1328125 C-2.91345564 34.47825057 -2.95220998 31.85026074 -2.9453125 29.1953125 C-2.94626923 28.4000415 -2.94722595 27.60477051 -2.94821167 26.78540039 C-2.94889343 25.1007479 -2.94703943 23.41609279 -2.94287109 21.73144531 C-2.93752275 19.14382053 -2.94281619 16.55636934 -2.94921875 13.96875 C-2.94855797 12.33593711 -2.9472768 10.70312434 -2.9453125 9.0703125 C-2.94733673 8.29115479 -2.94936096 7.51199707 -2.95144653 6.70922852 C-2.92290989 0.21417874 -2.92290989 0.21417874 0 0 Z " fill="#F8FBFB" transform="translate(757.8125,613.8671875)"/>
  <path d="M0 0 C2.12890625 0.46875 2.12890625 0.46875 4.69140625 2.34375 C6.74086101 6.79908643 6.87966648 10.64807904 6.12890625 15.46875 C4.69140625 18.59375 4.69140625 18.59375 2.12890625 20.46875 C-1.02517497 21.1632266 -3.71701253 21.1632266 -6.87109375 20.46875 C-9.85326048 18.28667679 -10.67632423 16.71937533 -11.2421875 13.0859375 C-11.4448149 8.97198726 -11.16641089 6.11074378 -9.43359375 2.34375 C-6.17464199 -0.04084885 -3.9766677 -0.26205388 0 0 Z " fill="#1E9C92" transform="translate(428.87109375,622.53125)"/>
  <path d="M0 0 C2.12890625 0.46875 2.12890625 0.46875 4.69140625 2.34375 C6.74086101 6.79908643 6.87966648 10.64807904 6.12890625 15.46875 C4.69140625 18.59375 4.69140625 18.59375 2.12890625 20.46875 C-0.95811923 21.03711931 -3.79970324 21.14751033 -6.87109375 20.46875 C-9.32903808 18.54270706 -9.85777727 17.50869944 -10.87109375 14.46875 C-11.37993362 10.01431576 -11.35613618 6.50210126 -9.43359375 2.40625 C-6.1761679 -0.05668174 -4.01637231 -0.26467033 0 0 Z " fill="#1E9C92" transform="translate(696.87109375,622.53125)"/>
  <path d="M0 0 C2.5 1.3125 2.5 1.3125 4 4 C4.60169318 7.77634103 4.65811697 11.22870363 4 15 C1.42725144 18.25377023 0.01974323 18.87513348 -4.0625 19.375 C-6.94822797 19.0066092 -8.6443401 18.68261422 -11 17 C-13.54358968 13.56615393 -13.2960629 10.14488056 -13 6 C-10.83297508 -0.16768632 -5.98657912 -0.90340731 0 0 Z " fill="#1F9C92" transform="translate(794,623)"/>
  <path d="M0 0 C2 1.625 2 1.625 3 4 C2.875 7.125 2.875 7.125 2 10 C-1 12 -1 12 -4.5625 11.75 C-8 11 -8 11 -10 9 C-10.3267107 5.92891945 -10.48138276 3.84949899 -8.9375 1.125 C-5.85928089 -0.66235303 -3.47093932 -0.43386742 0 0 Z " fill="#F5FAF9" transform="translate(893,640)"/>
  <path d="M0 0 C0.36431067 6.43615521 0.36431067 6.43615521 -1.10546875 8.7109375 C-3.89787956 10.61092836 -6.1601704 10.3613939 -9.5 10.3125 C-10.6446875 10.30863281 -11.789375 10.30476562 -12.96875 10.30078125 C-16 10 -16 10 -19 8 C-18.67 6.35 -18.34 4.7 -18 3 C-16.78763672 3.05220703 -16.78763672 3.05220703 -15.55078125 3.10546875 C-13.94783203 3.14607422 -13.94783203 3.14607422 -12.3125 3.1875 C-10.72888672 3.23970703 -10.72888672 3.23970703 -9.11328125 3.29296875 C-5.72054335 2.97370232 -2.95880485 0 0 0 Z " fill="#1A988D" transform="translate(798,647)"/>
  <path d="M0 0 C3.0625 0.3125 3.0625 0.3125 4.9375 1.5 C6.46909584 3.96757108 6.49072025 5.45769831 6.0625 8.3125 C5 10.1875 5 10.1875 3.0625 11.3125 C-0.5 11.1875 -0.5 11.1875 -3.9375 10.3125 C-5.9375 7.3125 -5.9375 7.3125 -5.6875 4.75 C-4.58727173 1.17425813 -3.7416128 0.39804391 0 0 Z " fill="#EFF7F7" transform="translate(759.9375,597.6875)"/>
  <path d="M0 0 C3.0625 0.3125 3.0625 0.3125 4.9375 1.5 C6.44582602 3.93008081 6.42273622 5.50265752 6.0625 8.3125 C4.0625 10.3125 4.0625 10.3125 0.5625 10.5625 C-2.9375 10.3125 -2.9375 10.3125 -4.9375 8.3125 C-5.1875 5.3125 -5.1875 5.3125 -4.9375 2.3125 C-2.9375 0.3125 -2.9375 0.3125 0 0 Z " fill="#FAFDFC" transform="translate(396.9375,597.6875)"/>
  <path d="M0 0 C3.3 0 6.6 0 10 0 C10 0.33 10 0.66 10 1 C7.36 1.33 4.72 1.66 2 2 C1.97314905 4.47923801 1.95323453 6.9581884 1.9375 9.4375 C1.92912109 10.14455078 1.92074219 10.85160156 1.91210938 11.58007812 C1.90346412 13.38693559 1.94779989 15.19387603 2 17 C2.99544182 18.2278348 2.99544182 18.2278348 4.9609375 18.02734375 C6.56521059 17.96763779 8.16938285 17.90515542 9.7734375 17.83984375 C12 18 12 18 15 20 C15.2475 21.155 15.495 22.31 15.75 23.5 C16.1625 24.655 16.575 25.81 17 27 C20.51400668 28.54086322 20.51400668 28.54086322 24 29 C24 29.33 24 29.66 24 30 C20.75 30.3125 20.75 30.3125 17 30 C14.5625 27.5 14.5625 27.5 13 25 C12.34 26.32 11.68 27.64 11 29 C10.34 28.67 9.68 28.34 9 28 C9.33 25.36 9.66 22.72 10 20 C8.081875 20.061875 8.081875 20.061875 6.125 20.125 C3.9453125 20.1953125 3.9453125 20.1953125 2 20 C0 18 0 18 -0.22705078 16.12060547 C-0.21657715 15.37697754 -0.20610352 14.63334961 -0.1953125 13.8671875 C-0.18886719 13.06152344 -0.18242188 12.25585938 -0.17578125 11.42578125 C-0.15064453 10.16314453 -0.15064453 10.16314453 -0.125 8.875 C-0.11597656 8.02550781 -0.10695313 7.17601562 -0.09765625 6.30078125 C-0.07405647 4.20040116 -0.03818483 2.10016556 0 0 Z " fill="#0D9085" transform="translate(868,623)"/>
  <path d="M0 0 C3.5625 0.3125 3.5625 0.3125 5.5 1.5625 C6.5625 3.3125 6.5625 3.3125 6.5625 7.3125 C1.9425 7.3125 -2.6775 7.3125 -7.4375 7.3125 C-4.68278302 0.42570755 -4.68278302 0.42570755 0 0 Z " fill="#2D9B91" transform="translate(573.4375,621.6875)"/>
  <path d="M0 0 C7.92 0 15.84 0 24 0 C23.67 0.66 23.34 1.32 23 2 C16.4 2 9.8 2 3 2 C6.1611016 5.1611016 6.5561582 5.38812741 10.6875 5.6875 C11.49574219 5.75324219 12.30398438 5.81898438 13.13671875 5.88671875 C13.75160156 5.92410156 14.36648438 5.96148438 15 6 C15 6.33 15 6.66 15 7 C6.03116407 7.78368469 6.03116407 7.78368469 1.875 4.625 C0 2 0 2 0 0 Z " fill="#098F83" transform="translate(566,636)"/>
  <path d="M0 0 C2.63564456 2.63564456 4.31830856 4.72070169 6 8 C5.67 8.66 5.34 9.32 5 10 C4.34 9.34 3.68 8.68 3 8 C2.05747447 12.04179098 1.80704506 15.90634444 1.68359375 20.05078125 C1.66281265 20.70958786 1.64203156 21.36839447 1.62062073 22.04716492 C1.55564511 24.13551185 1.49648425 26.22397612 1.4375 28.3125 C1.39426521 29.7350378 1.3506494 31.15756406 1.30664062 32.58007812 C1.20001784 36.05326297 1.09860652 39.52657726 1 43 C0.67 43 0.34 43 0 43 C0 28.81 0 14.62 0 0 Z " fill="#4EAEA7" transform="translate(585,501)"/>
  <path d="M0 0 C0.33 1.32 0.66 2.64 1 4 C-2.3 4 -5.6 4 -9 4 C-8.34 3.67 -7.68 3.34 -7 3 C-7 2.34 -7 1.68 -7 1 C-3.535 0.505 -3.535 0.505 0 0 Z " fill="#15978C" transform="translate(401,610)"/>
  <path d="M0 0 C2.625 -0.1875 2.625 -0.1875 5 0 C5 0.66 5 1.32 5 2 C6.65 1.67 8.3 1.34 10 1 C10 1.66 10 2.32 10 3 C6.04 3 2.08 3 -2 3 C-1.34 2.01 -0.68 1.02 0 0 Z " fill="#29A499" transform="translate(570,624)"/>
  <path d="M0 0 C2.31 0 4.62 0 7 0 C7.66 1.32 8.32 2.64 9 4 C7.68 4 6.36 4 5 4 C5 3.34 5 2.68 5 2 C3.35 1.67 1.7 1.34 0 1 C0 0.67 0 0.34 0 0 Z " fill="#14988B" transform="translate(570,622)"/>
  <path d="M0 0 C0.66 0.33 1.32 0.66 2 1 C-0.64960955 4.63094642 -3.01824456 6.89851796 -7 9 C-5.44499019 5.18315774 -2.96404505 2.80804268 0 0 Z " fill="#109388" transform="translate(305,383)"/>
  <path d="M0 0 C0.33 0.99 0.66 1.98 1 3 C-1.31 4.98 -3.62 6.96 -6 9 C-4.25618453 5.51236907 -2.47193291 2.96631949 0 0 Z " fill="#109286" transform="translate(285,408)"/>
</svg>
